<svg xmlns="http://www.w3.org/2000/svg" xmlns:xlink="http://www.w3.org/1999/xlink" version="1.1" x="0px" y="0px" viewBox="0 0 80 80" enable-background="new 0 0 80 80" xml:space="preserve">
  <path fill="#f5d327" d="M43.638,20.81c-2.248-5.495-5.32-8.521-8.65-8.521c-6.728,0-11.999,12.409-11.999,28.25s5.271,28.25,12,28.25   c6.729,0,11.999-12.408,11.999-28.25C46.988,33.099,45.798,26.092,43.638,20.81z"/>
  <path fill="#f5d327" d="M45.363,7.78l-8.528-0.849c-0.517-0.101-1.04-0.156-1.572-0.156c-8.972,0-16,14.714-16,33.5s7.028,33.5,16,33.5   c0.034,0,0.068-0.005,0.103-0.005c-0.001,0-0.002,0-0.003,0l0.004-0.001c0.473-0.006,0.939-0.054,1.399-0.14l8.497-0.854   c9.121,0,16-13.972,16.001-32.5C61.265,21.747,54.385,7.776,45.363,7.78z M59.192,37.159l-7.997,0.001c0,0.008,0,0.017,0.001,0.025   c-0.032-0.76-0.074-1.513-0.13-2.256l7.978,0C59.104,35.667,59.157,36.407,59.192,37.159z M58.851,32.93l-7.962,0   c-0.078-0.757-0.167-1.503-0.269-2.239c0,0.003,0.001,0.005,0.001,0.008h7.932C58.664,31.431,58.765,32.174,58.851,32.93z    M58.213,28.699l-7.897-0.001c-0.129-0.763-0.275-1.507-0.431-2.242c0.001,0.004,0.002,0.008,0.003,0.013h7.853   C57.911,27.195,58.07,27.938,58.213,28.699z M57.233,24.468l-7.805,0c-0.189-0.763-0.396-1.505-0.614-2.23h7.729   C56.787,22.959,57.019,23.7,57.233,24.468z M55.805,20.238l-7.638,0c0.003,0.006,0.005,0.013,0.007,0.019   c-0.274-0.782-0.566-1.536-0.872-2.261c0.001,0.004,0.003,0.007,0.006,0.011h7.507C55.162,18.712,55.492,19.458,55.805,20.238z    M53.73,16.006l-7.341-0.001c-0.392-0.786-0.804-1.531-1.233-2.23h7.025C52.721,14.447,53.238,15.189,53.73,16.006z M45.264,9.775   c1.753,0,3.43,0.712,4.978,2l-6.458,0c0.005,0.008,0.01,0.015,0.015,0.021c-0.699-0.909-1.435-1.71-2.204-2.386L45.264,9.775z    M35.264,71.775c-7.589,0-14-14.425-14-31.5c0.001-17.075,6.412-31.5,14.001-31.5c7.588,0,14,14.424,14,31.5   C49.264,57.351,42.853,71.775,35.264,71.775z M45.164,70.78l-3.568,0.358c0.769-0.676,1.504-1.477,2.202-2.383   c-0.005,0.007-0.009,0.014-0.014,0.02h6.415C48.637,70.065,46.941,70.779,45.164,70.78z M52.152,66.775l-6.996,0.001   c0.43-0.7,0.842-1.444,1.233-2.232l7.321,0.001C53.216,65.36,52.695,66.104,52.152,66.775z M54.802,62.544l-7.495,0.001   c-0.002,0.003-0.002,0.004-0.003,0.007c0.307-0.729,0.599-1.483,0.874-2.268c-0.004,0.011-0.006,0.021-0.01,0.03l7.627-0.001   C55.481,61.094,55.15,61.838,54.802,62.544z M56.537,58.314h-7.723c0.218-0.726,0.423-1.468,0.614-2.231h7.8   C57.014,56.851,56.782,57.593,56.537,58.314z M57.738,54.084l-7.851-0.001c-0.001,0.005-0.002,0.009-0.003,0.013   c0.155-0.734,0.302-1.48,0.433-2.243l7.895,0.001C58.067,52.612,57.909,53.354,57.738,54.084z M58.552,49.854l-7.931-0.001   c0,0.003-0.001,0.005-0.001,0.008c0.102-0.735,0.19-1.482,0.269-2.238h7.962C58.764,48.378,58.664,49.121,58.552,49.854z    M59.044,45.622h-7.977c0.055-0.744,0.097-1.497,0.129-2.259c-0.001,0.01-0.001,0.02-0.001,0.027l7.996,0.001   C59.157,44.144,59.104,44.887,59.044,45.622z M51.251,41.391c0,0.007-0.001,0.015-0.001,0.021c0.007-0.379,0.014-0.755,0.014-1.137   c0-0.381-0.007-0.759-0.014-1.136c0,0.008,0.001,0.014,0.001,0.021h8c0.006,0.37,0.013,0.741,0.012,1.115   c0.001,0.374-0.006,0.745-0.012,1.115H51.251z"/>
</svg>